<?xml version="1.0" encoding="utf-8"?>
<!-- Generator: Adobe Illustrator 22.0.0, SVG Export Plug-In . SVG Version: 6.00 Build 0)  -->
<svg version="1.1" id="Layer_1" xmlns="http://www.w3.org/2000/svg" xmlns:xlink="http://www.w3.org/1999/xlink" x="0px" y="0px"
	 viewBox="0 0 100 100" style="enable-background:new 0 0 100 100;" xml:space="preserve">
<style type="text/css">
	.st0{fill:#231F20;}
	.st1{fill:#FFFFFF;}
</style>
<g>
	<path class="st0" d="M74.7,100h-17L50,97.4l-7.7,2.6h-17C11.3,100,0,88.7,0,74.7V25.3C0,11.3,11.3,0,25.3,0h49.4
		c14,0,25.3,11.3,25.3,25.3v49.4C100,88.7,88.7,100,74.7,100z"/>
	<path class="st1" d="M42.3,39.1V50H29.7v14.3h12.5V100h15.4V64.3h11.5L71.4,50H57.7v-9.3c0-3.9,1.9-7.7,8-7.7H72V20.9
		c0,0-5.7-1-11.1-1C49.7,19.9,42.3,26.7,42.3,39.1z"/>
</g>
</svg>
