<?xml version="1.0" encoding="utf-8"?>
<!-- Generator: Adobe Illustrator 22.0.0, SVG Export Plug-In . SVG Version: 6.00 Build 0)  -->
<svg version="1.1" id="Layer_1" xmlns="http://www.w3.org/2000/svg" xmlns:xlink="http://www.w3.org/1999/xlink" x="0px" y="0px"
	 viewBox="0 0 100 100" style="enable-background:new 0 0 100 100;" xml:space="preserve">
<style type="text/css">
	.st0{fill:#231F20;}
	.st1{fill:#FFFFFF;}
</style>
<g>
	<path class="st0" d="M74.7,99.9h-17l-7.7,0l-7.7,0h-17C11.3,99.9,0,88.5,0,74.6V25.2c0-14,11.3-25.3,25.3-25.3h49.4
		c14,0,25.3,11.3,25.3,25.3v49.4C100,88.5,88.7,99.9,74.7,99.9z"/>
</g>
<g>
	<g>
		<g>
			<g>
				<path class="st1" d="M66.2,31.3c-1.9,0-3.4,1.5-3.4,3.4s1.5,3.4,3.4,3.4c1.9,0,3.4-1.5,3.4-3.4S68.1,31.3,66.2,31.3z"/>
				<path class="st1" d="M51.1,35.6c-7.9,0-14.3,6.4-14.3,14.3c0,7.9,6.4,14.3,14.3,14.3s14.3-6.4,14.3-14.3
					C65.4,42,59,35.6,51.1,35.6z M51.1,59c-5,0-9.1-4.1-9.1-9.1c0-5,4.1-9.1,9.1-9.1s9.1,4.1,9.1,9.1C60.2,54.9,56.1,59,51.1,59z"/>
				<path class="st1" d="M62.4,78.8H39.3c-9.6,0-17.4-7.8-17.4-17.4V38.3c0-9.6,7.8-17.4,17.4-17.4h23.1c9.6,0,17.4,7.8,17.4,17.4
					v23.1C79.8,71,72,78.8,62.4,78.8z M39.3,26.4c-6.6,0-11.9,5.4-11.9,11.9v23.1c0,6.6,5.4,11.9,11.9,11.9h23.1
					c6.6,0,11.9-5.4,11.9-11.9V38.3c0-6.6-5.4-11.9-11.9-11.9H39.3z"/>
			</g>
		</g>
	</g>
</g>
</svg>
