<?xml version="1.0" encoding="utf-8"?>
<!-- Generator: Adobe Illustrator 22.0.0, SVG Export Plug-In . SVG Version: 6.00 Build 0)  -->
<svg version="1.1" id="Layer_1" xmlns="http://www.w3.org/2000/svg" xmlns:xlink="http://www.w3.org/1999/xlink" x="0px" y="0px"
	 viewBox="0 0 100 100" style="enable-background:new 0 0 100 100;" xml:space="preserve">
<style type="text/css">
	.st0{fill:#231F20;}
	.st1{fill:#FFFFFF;}
</style>
<g>
	<path class="st0" d="M74.7,99.9h-17l-7.7,0l-7.7,0h-17C11.3,99.9,0,88.5,0,74.6V25.2c0-14,11.3-25.3,25.3-25.3h49.4
		c14,0,25.3,11.3,25.3,25.3v49.4C100,88.5,88.7,99.9,74.7,99.9z"/>
</g>
<g>
	<path d="M197.2,100h-81.7c-5,0-9.1-4.1-9.1-9.1V9.1c0-5,4.1-9.1,9.1-9.1h81.7c5,0,9.1,4.1,9.1,9.1v81.7
		C206.3,95.9,202.2,100,197.2,100z"/>
	<g>
		<path class="st1" d="M76,33.4c-1.7,0.8-3.6,1.2-5.4,1.6c0.9-0.1,2.2-1.7,2.7-2.4c0.8-1,1.4-2.1,1.8-3.3c0-0.1,0.1-0.2,0-0.3
			c-0.1,0-0.2,0-0.3,0c-2.1,1.1-4.2,1.9-6.5,2.5c-0.2,0-0.3,0-0.4-0.1c-0.2-0.2-0.4-0.4-0.6-0.6c-1-0.8-2-1.4-3.1-1.9
			c-1.5-0.6-3.2-0.9-4.8-0.8c-1.6,0.1-3.1,0.6-4.6,1.3c-1.4,0.7-2.7,1.8-3.7,3c-1,1.3-1.8,2.8-2.2,4.4c-0.4,1.5-0.3,3.1-0.1,4.6
			c0,0.3,0,0.3-0.2,0.3c-8.9-1.3-16.2-4.5-22.2-11.3c-0.3-0.3-0.4-0.3-0.6,0c-2.6,3.9-1.3,10.2,1.9,13.3c0.4,0.4,0.9,0.8,1.4,1.2
			c-0.2,0-2.3-0.2-4.3-1.2c-0.3-0.2-0.4-0.1-0.4,0.2c0,0.4,0,0.8,0.1,1.3c0.5,4,3.2,7.6,7,9.1c0.4,0.2,0.9,0.4,1.4,0.4
			c-0.9,0.2-1.7,0.3-4.2,0.1c-0.3-0.1-0.4,0.1-0.3,0.4c1.8,5,5.8,6.5,8.8,7.4c0.4,0.1,0.8,0.1,1.2,0.2c0,0,0,0-0.1,0.1
			c-1,1.5-4.4,2.6-6,3.2c-2.9,1-6.1,1.5-9.2,1.2c-0.5-0.1-0.6-0.1-0.7,0c-0.1,0.1,0,0.2,0.1,0.3c0.6,0.4,1.3,0.8,1.9,1.1
			c2,1,4,1.9,6.1,2.4c11,3,23.4,0.8,31.6-7.4c6.5-6.4,8.8-15.3,8.8-24.2c0-0.3,0.4-0.5,0.7-0.7c1.7-1.3,3-2.8,4.3-4.5
			c0.3-0.4,0.3-0.7,0.3-0.9c0,0,0,0,0,0C76.2,33.3,76.2,33.3,76,33.4z"/>
	</g>
</g>
</svg>
