<?xml version="1.0" encoding="utf-8"?>
<!-- Generator: Adobe Illustrator 22.0.0, SVG Export Plug-In . SVG Version: 6.00 Build 0)  -->
<svg version="1.1" id="Layer_1" xmlns="http://www.w3.org/2000/svg" xmlns:xlink="http://www.w3.org/1999/xlink" x="0px" y="0px"
	 viewBox="0 0 100 100" style="enable-background:new 0 0 100 100;" xml:space="preserve">
<style type="text/css">
	.st0{fill:#231F20;}
	.st1{fill:#FFFFFF;}
</style>
<g>
	<path class="st0" d="M74.7,99.9h-17l-7.7,0l-7.7,0h-17C11.3,99.9,0,88.5,0,74.6V25.2c0-14,11.3-25.3,25.3-25.3h49.4
		c14,0,25.3,11.3,25.3,25.3v49.4C100,88.5,88.7,99.9,74.7,99.9z"/>
</g>
<g>
	<g>
		<path class="st1" d="M77.1,42.8c0-6.6-5.3-11.9-11.9-11.9H34.8c-6.6,0-11.9,5.3-11.9,11.9V57c0,6.6,5.3,11.9,11.9,11.9h30.4
			c6.6,0,11.9-5.3,11.9-11.9V42.8z M59.2,51l-13.6,6.7C45,58,43.2,57.6,43.2,57V43.2c0-0.6,1.8-1,2.4-0.7l13,7.1
			C59.2,49.9,59.8,50.7,59.2,51z"/>
	</g>
</g>
</svg>
