<?xml version="1.0" encoding="utf-8"?>
<!-- Generator: Adobe Illustrator 22.0.0, SVG Export Plug-In . SVG Version: 6.00 Build 0)  -->
<svg version="1.1" id="Layer_1" xmlns="http://www.w3.org/2000/svg" xmlns:xlink="http://www.w3.org/1999/xlink" x="0px" y="0px"
	 viewBox="0 0 500 500" style="enable-background:new 0 0 500 500;" xml:space="preserve">
<style type="text/css">
	.st0{fill:#D1D3D4;}
	.st1{fill:#F1F2F2;}
	.st2{fill:#26A69A;}
	.st3{fill:#00796B;}
</style>
<g>
	<path class="st0" d="M396.9,102.4c-81.1-81.1-212.7-81.1-293.8,0c-81.1,81.1-81.1,212.7,0,293.8c81.1,81.1,212.7,81.1,293.8,0
		C478.1,315.1,478.1,183.6,396.9,102.4z M132.5,366.9c-64.9-64.9-64.9-170.2,0-235.1c64.9-64.9,170.2-64.9,235.1,0
		c64.9,64.9,64.9,170.2,0,235.1C302.6,431.8,197.4,431.8,132.5,366.9z"/>
	<path class="st1" d="M132.5,366.9c-64.9-64.9-64.9-170.2,0-235.1c64.9-64.9,170.2-64.9,235.1,0l29.4-29.4
		c-81.1-81.1-212.7-81.1-293.8,0c-81.1,81.1-81.1,212.7,0,293.8L132.5,366.9z"/>
	<polygon class="st2" points="185.4,184.7 250,249.3 455.7,43.6 	"/>
	<polygon class="st3" points="314.6,314 250,249.3 455.7,43.6 	"/>
	<polygon class="st0" points="314.6,314 250,249.3 44.3,455 	"/>
	<polygon class="st1" points="185.4,184.7 250,249.3 44.3,455 	"/>
	<polygon class="st1" points="250,0 208.4,83.1 291.6,83.1 	"/>
	<polygon class="st0" points="499.3,249.3 416.2,207.8 416.2,290.9 	"/>
	<polygon class="st0" points="250,498.7 291.6,415.6 208.4,415.6 	"/>
	<polygon class="st1" points="0.7,249.3 83.8,290.9 83.8,207.8 	"/>
</g>
</svg>
