<?xml version="1.0" encoding="utf-8"?>
<!-- Generator: Adobe Illustrator 22.0.0, SVG Export Plug-In . SVG Version: 6.00 Build 0)  -->
<svg version="1.1" id="Layer_1" xmlns="http://www.w3.org/2000/svg" xmlns:xlink="http://www.w3.org/1999/xlink" x="0px" y="0px"
	 viewBox="0 0 250 60" style="enable-background:new 0 0 250 60;" xml:space="preserve">
<g>
	<path d="M48.4,10.9C46,7.2,42.5,5.3,37.9,5.3c-1.4,0-2.8,0.2-4.2,0.6s-2.6,1-3.7,1.9c-1.1,0.8-2,1.9-2.7,3.2c-0.7,1.3-1,2.9-1,4.6
		c0,2.6,0.7,4.6,2.1,6c1.4,1.4,3.1,2.6,5.2,3.5c2.1,0.9,4.3,1.7,6.7,2.5c2.4,0.7,4.7,1.7,6.7,2.9c2.1,1.2,3.8,2.8,5.2,4.8
		c1.4,2,2.1,4.7,2.1,8.1c0,2.6-0.5,4.9-1.6,7c-1.1,2.1-2.4,3.8-4.2,5.2c-1.7,1.4-3.6,2.5-5.8,3.2c-2.1,0.8-4.3,1.1-6.4,1.1
		c-3.3,0-6.5-0.7-9.5-2c-3-1.3-5.6-3.5-7.7-6.5l5.1-3.8c1.2,2.1,2.8,3.8,4.9,5c2.1,1.3,4.6,1.9,7.4,1.9c1.4,0,2.8-0.2,4.1-0.7
		c1.4-0.5,2.6-1.1,3.7-2c1.1-0.9,2-2,2.7-3.3c0.7-1.3,1.1-2.8,1.1-4.4c0-2-0.4-3.6-1.2-5c-0.8-1.3-1.8-2.4-3.2-3.3s-2.8-1.6-4.5-2.2
		c-1.7-0.6-3.4-1.2-5.2-1.8c-1.8-0.6-3.5-1.3-5.2-2c-1.7-0.8-3.2-1.7-4.5-2.9c-1.3-1.2-2.4-2.6-3.2-4.4c-0.8-1.7-1.2-3.9-1.2-6.6
		c0-2.7,0.5-5.1,1.5-7.2c1-2,2.3-3.7,4-5.1c1.7-1.3,3.6-2.3,5.7-3c2.1-0.6,4.3-1,6.5-1c3.1,0,5.9,0.5,8.4,1.5c2.5,1,4.8,2.8,7,5.4
		L48.4,10.9z"/>
	<path d="M105,58.5c-0.1-1-0.2-2-0.2-3c0-1,0-2,0-3h-0.2c-0.6,1-1.3,2-2.2,2.8c-0.9,0.9-1.8,1.6-2.9,2.2c-1.1,0.6-2.2,1.1-3.4,1.5
		c-1.2,0.3-2.4,0.5-3.6,0.5c-4.6,0-8-1.3-10.2-3.8c-2.2-2.6-3.3-6.2-3.3-10.9v-24h5.1v20.9c0,2.1,0.2,4,0.5,5.6
		c0.3,1.6,0.8,3,1.6,4.1c0.7,1.1,1.7,1.9,3,2.5c1.3,0.6,2.8,0.8,4.7,0.8c0.3,0,1-0.1,2.2-0.3c1.2-0.2,2.4-0.8,3.7-1.8
		c1.3-1,2.5-2.4,3.5-4.4c1-1.9,1.5-4.6,1.5-8.1V20.8h5.1v29.4c0,1,0,2.3,0.1,3.9c0.1,1.6,0.2,3,0.3,4.4H105z"/>
	<path d="M144.5,6.3c0,1.1-0.4,2.1-1.2,2.8c-0.8,0.7-1.6,1.1-2.5,1.1c-0.9,0-1.8-0.4-2.5-1.1c-0.8-0.7-1.2-1.7-1.2-2.8
		c0-1.1,0.4-2.1,1.2-2.8c0.8-0.7,1.6-1.1,2.5-1.1c0.9,0,1.8,0.4,2.5,1.1C144.2,4.2,144.5,5.2,144.5,6.3z M143.4,58.5h-5.1V20.8h5.1
		V58.5z"/>
	<path d="M186.9,58.5h-5.7l-14.6-37.7h6l11.5,31.8h0.2l11.5-31.8h5.8L186.9,58.5z"/>
	<path d="M230.9,6.3c0,1.1-0.4,2.1-1.2,2.8c-0.8,0.7-1.6,1.1-2.5,1.1c-0.9,0-1.8-0.4-2.5-1.1c-0.8-0.7-1.2-1.7-1.2-2.8
		c0-1.1,0.4-2.1,1.2-2.8c0.8-0.7,1.6-1.1,2.5-1.1c0.9,0,1.8,0.4,2.5,1.1C230.5,4.2,230.9,5.2,230.9,6.3z M229.7,58.5h-5.1V20.8h5.1
		V58.5z"/>
</g>
</svg>
